<svg xmlns="http://www.w3.org/2000/svg" xmlns:xlink="http://www.w3.org/1999/xlink" width="3217"
    height="887" viewBox="0 0 3217 887">
    <defs>
        <clipPath id="clip-Artboard_11">
            <rect width="3217" height="887"></rect>
        </clipPath>
    </defs>
    <g id="Artboard_11" data-name="Artboard &#x2013; 11" clip-path="url(#clip-Artboard_11)">
        <rect width="3217" height="887" fill="rgba(255,255,255,0)"></rect>
        <g id="Group_1454" data-name="Group 1454" transform="translate(0 -9679)">
            <rect id="Rectangle_124" data-name="Rectangle 124" width="3217" height="969"
                transform="translate(-8 9679)" fill="none"></rect>
            <g id="Group_1453" data-name="Group 1453" transform="translate(-8 9262)">
                <g id="Group_1405" data-name="Group 1405" transform="translate(-205.344 623.605)"
                    opacity="0.1">
                    <path id="Path"
                        d="M158.931.985,8.754,74.366A16.3,16.3,0,0,0,0,87.413v87.931c0,4.85,3.906,6.79,8.754,4.365l150.177-75.272a16.293,16.293,0,0,0,8.754-12.95V5.3C167.685.6,163.778-1.343,158.931.985Z"
                        transform="translate(275.003 0)" fill="#00e4b2"></path>
                    <path id="Path-2" data-name="Path"
                        d="M158.931,1.129,8.754,79.459A16.994,16.994,0,0,0,0,92.912v89.207c0,4.77,3.906,6.774,8.754,4.2l150.177-80.191a17.04,17.04,0,0,0,8.754-13.357V5.28C167.685.461,163.778-1.4,158.931,1.129Z"
                        transform="translate(0 428.452)" fill="#3d51d9"></path>
                    <path id="Path-3" data-name="Path"
                        d="M8.754,179.813l150.177-72.12a16.1,16.1,0,0,0,8.754-13.047V5.7c0-4.85-3.906-7.033-8.754-4.85L8.754,71.076A15.96,15.96,0,0,0,0,84.219v90.7C0,180.007,3.906,182.141,8.754,179.813Z"
                        transform="translate(0 127.197)" fill="#00d1cd"></path>
                    <path id="Path-4" data-name="Path"
                        d="M174.392,91.481V5.212c0-4.722-4.058-6.563-9.094-4.155L132.786,16.45,9.094,72.4A15.88,15.88,0,0,0,0,85.2v90.282c0,4.722,4.058,6.658,9.094,4.2l123.693-60.534L165.1,104.183a15.9,15.9,0,0,0,9.289-12.7Z"
                        transform="translate(134.148 214.226)" fill="#4680e9"></path>
                    <path id="Path-5" data-name="Path"
                        d="M158.931,1.018,8.754,75.138A16.318,16.318,0,0,0,0,88.181V175.44c0,4.813,3.906,6.69,8.754,4.235l150.177-76a16.364,16.364,0,0,0,8.754-12.947V5.206C167.685.537,163.778-1.34,158.931,1.018Z"
                        transform="translate(275.003 294.56)" fill="#3d51d9"></path>
                </g>
                <g id="Group_1445" data-name="Group 1445" transform="translate(2995.656 623.605)"
                    opacity="0.1">
                    <path id="Path-6" data-name="Path"
                        d="M158.931,179.768,8.754,106.387A16.3,16.3,0,0,1,0,93.34V5.409c0-4.85,3.906-6.79,8.754-4.365L158.931,76.316a16.293,16.293,0,0,1,8.754,12.95v86.185C167.685,180.156,163.778,182.1,158.931,179.768Z"
                        transform="translate(275.003 435.146)" fill="#00e4b2"></path>
                    <path id="Path-7" data-name="Path"
                        d="M158.931,186.318,8.754,107.988A16.994,16.994,0,0,1,0,94.536V5.329c0-4.77,3.906-6.774,8.754-4.2L158.931,81.321a17.04,17.04,0,0,1,8.754,13.357v87.489C167.685,186.986,163.778,188.847,158.931,186.318Z"
                        transform="translate(0 0)" fill="#3d51d9"></path>
                    <path id="Path-8" data-name="Path"
                        d="M8.754.94,158.931,73.06a16.1,16.1,0,0,1,8.754,13.047v88.95c0,4.85-3.906,7.033-8.754,4.85L8.754,109.677A15.96,15.96,0,0,1,0,96.534V5.838C0,.746,3.906-1.388,8.754.94Z"
                        transform="translate(0 307.949)" fill="#00d1cd"></path>
                    <path id="Path-9" data-name="Path"
                        d="M174.392,89.272v86.268c0,4.722-4.058,6.563-9.094,4.155L132.786,164.3,9.094,108.349A15.88,15.88,0,0,1,0,95.552V5.27c0-4.722,4.058-6.658,9.094-4.2L132.786,61.6,165.1,76.57a15.9,15.9,0,0,1,9.289,12.7Z"
                        transform="translate(134.148 220.92)" fill="#4680e9"></path>
                    <path id="Path-10" data-name="Path"
                        d="M158.931,179.734,8.754,105.615A16.318,16.318,0,0,1,0,92.572V5.313C0,.5,3.906-1.377,8.754,1.077l150.177,76a16.364,16.364,0,0,1,8.754,12.947v85.526C167.685,180.216,163.778,182.093,158.931,179.734Z"
                        transform="translate(275.003 140.586)" fill="#3d51d9"></path>
                </g>
            </g>
        </g>
    </g>
</svg>